<mxfile host="app.diagrams.net" modified="2024-02-08T18:54:32.307Z" agent="Mozilla/5.0 (Windows NT 10.0; Win64; x64) AppleWebKit/537.36 (KHTML, like Gecko) Chrome/121.0.0.0 Safari/537.36" etag="Y_e1VKCAbZfENA8_z8v7" version="23.1.2" type="device">
  <diagram id="R2lEEEUBdFMjLlhIrx00" name="Page-1">
    <mxGraphModel dx="712" dy="736" grid="1" gridSize="10" guides="1" tooltips="1" connect="1" arrows="1" fold="1" page="1" pageScale="1" pageWidth="850" pageHeight="1100" math="0" shadow="0" extFonts="Permanent Marker^https://fonts.googleapis.com/css?family=Permanent+Marker">
      <root>
        <mxCell id="0" />
        <mxCell id="1" parent="0" />
        <mxCell id="4AdipyhfN4XngV5wHGyr-1" value="Teacher&#xa;" style="shape=table;startSize=30;container=1;collapsible=1;childLayout=tableLayout;fixedRows=1;rowLines=0;fontStyle=1;align=center;resizeLast=1;" parent="1" vertex="1">
          <mxGeometry x="430" y="210" width="260" height="30" as="geometry" />
        </mxCell>
        <mxCell id="4AdipyhfN4XngV5wHGyr-2" value="" style="shape=partialRectangle;collapsible=0;dropTarget=0;pointerEvents=0;fillColor=none;points=[[0,0.5],[1,0.5]];portConstraint=eastwest;top=0;left=0;right=0;bottom=0;" parent="4AdipyhfN4XngV5wHGyr-1" vertex="1" visible="0">
          <mxGeometry y="30" width="260" height="30" as="geometry" />
        </mxCell>
        <mxCell id="4AdipyhfN4XngV5wHGyr-3" value="" style="shape=partialRectangle;overflow=hidden;connectable=0;fillColor=none;top=0;left=0;bottom=0;right=0;" parent="4AdipyhfN4XngV5wHGyr-2" vertex="1">
          <mxGeometry width="30" height="30" as="geometry">
            <mxRectangle width="30" height="30" as="alternateBounds" />
          </mxGeometry>
        </mxCell>
        <mxCell id="4AdipyhfN4XngV5wHGyr-4" value="" style="shape=partialRectangle;overflow=hidden;connectable=0;fillColor=none;top=0;left=0;bottom=0;right=0;align=left;spacingLeft=6;" parent="4AdipyhfN4XngV5wHGyr-2" vertex="1">
          <mxGeometry x="30" width="230" height="30" as="geometry">
            <mxRectangle width="230" height="30" as="alternateBounds" />
          </mxGeometry>
        </mxCell>
        <mxCell id="4AdipyhfN4XngV5wHGyr-5" value="Enrolment" style="shape=table;startSize=30;container=1;collapsible=1;childLayout=tableLayout;fixedRows=1;rowLines=0;fontStyle=1;align=center;resizeLast=1;" parent="1" vertex="1">
          <mxGeometry x="430" y="420" width="250" height="30" as="geometry" />
        </mxCell>
        <mxCell id="4AdipyhfN4XngV5wHGyr-6" value="" style="shape=partialRectangle;collapsible=0;dropTarget=0;pointerEvents=0;fillColor=none;points=[[0,0.5],[1,0.5]];portConstraint=eastwest;top=0;left=0;right=0;bottom=1;" parent="4AdipyhfN4XngV5wHGyr-5" vertex="1" visible="0">
          <mxGeometry y="30" width="250" height="30" as="geometry" />
        </mxCell>
        <mxCell id="4AdipyhfN4XngV5wHGyr-7" value="" style="shape=partialRectangle;overflow=hidden;connectable=0;fillColor=none;top=0;left=0;bottom=0;right=0;fontStyle=1;" parent="4AdipyhfN4XngV5wHGyr-6" vertex="1">
          <mxGeometry width="30" height="30" as="geometry">
            <mxRectangle width="30" height="30" as="alternateBounds" />
          </mxGeometry>
        </mxCell>
        <mxCell id="4AdipyhfN4XngV5wHGyr-8" value="" style="shape=partialRectangle;overflow=hidden;connectable=0;fillColor=none;top=0;left=0;bottom=0;right=0;align=left;spacingLeft=6;fontStyle=5;" parent="4AdipyhfN4XngV5wHGyr-6" vertex="1">
          <mxGeometry x="30" width="220" height="30" as="geometry">
            <mxRectangle width="220" height="30" as="alternateBounds" />
          </mxGeometry>
        </mxCell>
        <mxCell id="4AdipyhfN4XngV5wHGyr-9" value="Department" style="shape=table;startSize=30;container=1;collapsible=1;childLayout=tableLayout;fixedRows=1;rowLines=0;fontStyle=1;align=center;resizeLast=1;" parent="1" vertex="1">
          <mxGeometry x="110" y="210" width="250" height="30" as="geometry" />
        </mxCell>
        <mxCell id="4AdipyhfN4XngV5wHGyr-10" value="" style="shape=partialRectangle;collapsible=0;dropTarget=0;pointerEvents=0;fillColor=none;points=[[0,0.5],[1,0.5]];portConstraint=eastwest;top=0;left=0;right=0;bottom=1;" parent="4AdipyhfN4XngV5wHGyr-9" vertex="1" visible="0">
          <mxGeometry y="30" width="250" height="30" as="geometry" />
        </mxCell>
        <mxCell id="4AdipyhfN4XngV5wHGyr-11" value="" style="shape=partialRectangle;overflow=hidden;connectable=0;fillColor=none;top=0;left=0;bottom=0;right=0;fontStyle=1;" parent="4AdipyhfN4XngV5wHGyr-10" vertex="1">
          <mxGeometry width="30" height="30" as="geometry">
            <mxRectangle width="30" height="30" as="alternateBounds" />
          </mxGeometry>
        </mxCell>
        <mxCell id="4AdipyhfN4XngV5wHGyr-12" value="" style="shape=partialRectangle;overflow=hidden;connectable=0;fillColor=none;top=0;left=0;bottom=0;right=0;align=left;spacingLeft=6;fontStyle=5;" parent="4AdipyhfN4XngV5wHGyr-10" vertex="1">
          <mxGeometry x="30" width="220" height="30" as="geometry">
            <mxRectangle width="220" height="30" as="alternateBounds" />
          </mxGeometry>
        </mxCell>
        <mxCell id="4AdipyhfN4XngV5wHGyr-13" value="Student" style="shape=table;startSize=30;container=1;collapsible=1;childLayout=tableLayout;fixedRows=1;rowLines=0;fontStyle=1;align=center;resizeLast=1;" parent="1" vertex="1">
          <mxGeometry x="280" y="580" width="250" height="30" as="geometry" />
        </mxCell>
        <mxCell id="4AdipyhfN4XngV5wHGyr-14" value="" style="shape=partialRectangle;collapsible=0;dropTarget=0;pointerEvents=0;fillColor=none;points=[[0,0.5],[1,0.5]];portConstraint=eastwest;top=0;left=0;right=0;bottom=1;" parent="4AdipyhfN4XngV5wHGyr-13" vertex="1" visible="0">
          <mxGeometry y="30" width="250" height="30" as="geometry" />
        </mxCell>
        <mxCell id="4AdipyhfN4XngV5wHGyr-15" value="" style="shape=partialRectangle;overflow=hidden;connectable=0;fillColor=none;top=0;left=0;bottom=0;right=0;fontStyle=1;" parent="4AdipyhfN4XngV5wHGyr-14" vertex="1">
          <mxGeometry width="30" height="30" as="geometry">
            <mxRectangle width="30" height="30" as="alternateBounds" />
          </mxGeometry>
        </mxCell>
        <mxCell id="4AdipyhfN4XngV5wHGyr-16" value="" style="shape=partialRectangle;overflow=hidden;connectable=0;fillColor=none;top=0;left=0;bottom=0;right=0;align=left;spacingLeft=6;fontStyle=5;" parent="4AdipyhfN4XngV5wHGyr-14" vertex="1">
          <mxGeometry x="30" width="220" height="30" as="geometry">
            <mxRectangle width="220" height="30" as="alternateBounds" />
          </mxGeometry>
        </mxCell>
        <mxCell id="4AdipyhfN4XngV5wHGyr-17" value="Course" style="shape=table;startSize=30;container=1;collapsible=1;childLayout=tableLayout;fixedRows=1;rowLines=0;fontStyle=1;align=center;resizeLast=1;" parent="1" vertex="1">
          <mxGeometry x="110" y="350" width="250" height="30" as="geometry" />
        </mxCell>
        <mxCell id="4AdipyhfN4XngV5wHGyr-18" value="" style="shape=partialRectangle;collapsible=0;dropTarget=0;pointerEvents=0;fillColor=none;points=[[0,0.5],[1,0.5]];portConstraint=eastwest;top=0;left=0;right=0;bottom=1;" parent="4AdipyhfN4XngV5wHGyr-17" vertex="1" visible="0">
          <mxGeometry y="30" width="250" height="30" as="geometry" />
        </mxCell>
        <mxCell id="4AdipyhfN4XngV5wHGyr-19" value="" style="shape=partialRectangle;overflow=hidden;connectable=0;fillColor=none;top=0;left=0;bottom=0;right=0;fontStyle=1;" parent="4AdipyhfN4XngV5wHGyr-18" vertex="1">
          <mxGeometry width="30" height="30" as="geometry">
            <mxRectangle width="30" height="30" as="alternateBounds" />
          </mxGeometry>
        </mxCell>
        <mxCell id="4AdipyhfN4XngV5wHGyr-20" value="" style="shape=partialRectangle;overflow=hidden;connectable=0;fillColor=none;top=0;left=0;bottom=0;right=0;align=left;spacingLeft=6;fontStyle=5;" parent="4AdipyhfN4XngV5wHGyr-18" vertex="1">
          <mxGeometry x="30" width="220" height="30" as="geometry">
            <mxRectangle width="220" height="30" as="alternateBounds" />
          </mxGeometry>
        </mxCell>
        <mxCell id="4AdipyhfN4XngV5wHGyr-21" value="" style="edgeStyle=entityRelationEdgeStyle;fontSize=12;html=1;endArrow=ERoneToMany;rounded=0;curved=1;startSize=8;endSize=8;entryX=1;entryY=0.5;entryDx=0;entryDy=0;" parent="1" source="4AdipyhfN4XngV5wHGyr-1" target="4AdipyhfN4XngV5wHGyr-5" edge="1">
          <mxGeometry width="100" height="100" relative="1" as="geometry">
            <mxPoint x="552.5" y="240" as="sourcePoint" />
            <mxPoint x="557.5" y="310" as="targetPoint" />
            <Array as="points">
              <mxPoint x="632.5" y="280" />
              <mxPoint x="332.5" y="250" />
              <mxPoint x="402.5" y="250" />
              <mxPoint x="362.5" y="250" />
              <mxPoint x="472.5" y="320" />
              <mxPoint x="612.5" y="300" />
              <mxPoint x="662.5" y="230" />
            </Array>
          </mxGeometry>
        </mxCell>
        <mxCell id="4AdipyhfN4XngV5wHGyr-23" value="" style="edgeStyle=entityRelationEdgeStyle;fontSize=12;html=1;endArrow=ERoneToMany;rounded=0;curved=1;startSize=8;endSize=8;entryX=0;entryY=0.5;entryDx=0;entryDy=0;" parent="1" source="4AdipyhfN4XngV5wHGyr-9" target="4AdipyhfN4XngV5wHGyr-1" edge="1">
          <mxGeometry width="100" height="100" relative="1" as="geometry">
            <mxPoint x="370" y="230" as="sourcePoint" />
            <mxPoint x="370" y="297" as="targetPoint" />
          </mxGeometry>
        </mxCell>
        <mxCell id="4AdipyhfN4XngV5wHGyr-24" value="" style="edgeStyle=entityRelationEdgeStyle;fontSize=12;html=1;endArrow=ERoneToMany;rounded=0;curved=1;startSize=8;endSize=8;entryX=1;entryY=0.5;entryDx=0;entryDy=0;exitX=0;exitY=0.5;exitDx=0;exitDy=0;" parent="1" source="4AdipyhfN4XngV5wHGyr-5" target="4AdipyhfN4XngV5wHGyr-17" edge="1">
          <mxGeometry width="100" height="100" relative="1" as="geometry">
            <mxPoint x="382" y="360" as="sourcePoint" />
            <mxPoint x="390" y="427" as="targetPoint" />
          </mxGeometry>
        </mxCell>
        <mxCell id="4AdipyhfN4XngV5wHGyr-27" value="&lt;br&gt;&lt;br&gt;" style="rounded=0;whiteSpace=wrap;html=1;fontSize=16;" parent="1" vertex="1">
          <mxGeometry x="110" y="240" width="250" height="60" as="geometry" />
        </mxCell>
        <mxCell id="4AdipyhfN4XngV5wHGyr-28" value="" style="rounded=0;whiteSpace=wrap;html=1;fontSize=16;" parent="1" vertex="1">
          <mxGeometry x="430" y="240" width="260" height="130" as="geometry" />
        </mxCell>
        <mxCell id="4AdipyhfN4XngV5wHGyr-29" value="" style="rounded=0;whiteSpace=wrap;html=1;fontSize=16;" parent="1" vertex="1">
          <mxGeometry x="430" y="450" width="250" height="90" as="geometry" />
        </mxCell>
        <mxCell id="4AdipyhfN4XngV5wHGyr-30" value="" style="rounded=0;whiteSpace=wrap;html=1;fontSize=16;" parent="1" vertex="1">
          <mxGeometry x="110" y="380" width="250" height="110" as="geometry" />
        </mxCell>
        <mxCell id="4AdipyhfN4XngV5wHGyr-31" value="" style="rounded=0;whiteSpace=wrap;html=1;fontSize=16;" parent="1" vertex="1">
          <mxGeometry x="280" y="610" width="250" height="120" as="geometry" />
        </mxCell>
        <mxCell id="4AdipyhfN4XngV5wHGyr-32" value="department_id" style="text;html=1;strokeColor=none;fillColor=none;align=center;verticalAlign=middle;whiteSpace=wrap;rounded=0;fontSize=16;" parent="1" vertex="1">
          <mxGeometry x="136" y="236" width="60" height="30" as="geometry" />
        </mxCell>
        <mxCell id="4AdipyhfN4XngV5wHGyr-33" value="department_name" style="text;html=1;strokeColor=none;fillColor=none;align=center;verticalAlign=middle;whiteSpace=wrap;rounded=0;fontSize=16;" parent="1" vertex="1">
          <mxGeometry x="150" y="255" width="60" height="30" as="geometry" />
        </mxCell>
        <mxCell id="4AdipyhfN4XngV5wHGyr-34" value="department_location" style="text;html=1;strokeColor=none;fillColor=none;align=center;verticalAlign=middle;whiteSpace=wrap;rounded=0;fontSize=16;" parent="1" vertex="1">
          <mxGeometry x="158" y="274" width="60" height="30" as="geometry" />
        </mxCell>
        <mxCell id="4AdipyhfN4XngV5wHGyr-35" value="teacher_id" style="text;html=1;strokeColor=none;fillColor=none;align=center;verticalAlign=middle;whiteSpace=wrap;rounded=0;fontSize=16;" parent="1" vertex="1">
          <mxGeometry x="444" y="236" width="60" height="30" as="geometry" />
        </mxCell>
        <mxCell id="4AdipyhfN4XngV5wHGyr-36" value="teacher_firstname" style="text;html=1;strokeColor=none;fillColor=none;align=center;verticalAlign=middle;whiteSpace=wrap;rounded=0;fontSize=16;" parent="1" vertex="1">
          <mxGeometry x="470" y="256" width="60" height="30" as="geometry" />
        </mxCell>
        <mxCell id="4AdipyhfN4XngV5wHGyr-37" value="teacher_lastname" style="text;html=1;strokeColor=none;fillColor=none;align=center;verticalAlign=middle;whiteSpace=wrap;rounded=0;fontSize=16;" parent="1" vertex="1">
          <mxGeometry x="470" y="276" width="60" height="30" as="geometry" />
        </mxCell>
        <mxCell id="4AdipyhfN4XngV5wHGyr-41" value="enrollment_id" style="text;html=1;strokeColor=none;fillColor=none;align=center;verticalAlign=middle;whiteSpace=wrap;rounded=0;fontSize=16;" parent="1" vertex="1">
          <mxGeometry x="453" y="444" width="60" height="30" as="geometry" />
        </mxCell>
        <mxCell id="4AdipyhfN4XngV5wHGyr-42" value="course_id" style="text;html=1;strokeColor=none;fillColor=none;align=center;verticalAlign=middle;whiteSpace=wrap;rounded=0;fontSize=16;" parent="1" vertex="1">
          <mxGeometry x="440" y="460" width="60" height="30" as="geometry" />
        </mxCell>
        <mxCell id="4AdipyhfN4XngV5wHGyr-44" value="semester" style="text;html=1;strokeColor=none;fillColor=none;align=center;verticalAlign=middle;whiteSpace=wrap;rounded=0;fontSize=16;" parent="1" vertex="1">
          <mxGeometry x="439" y="492" width="60" height="30" as="geometry" />
        </mxCell>
        <mxCell id="4AdipyhfN4XngV5wHGyr-45" value="course_id" style="text;html=1;strokeColor=none;fillColor=none;align=center;verticalAlign=middle;whiteSpace=wrap;rounded=0;fontSize=16;" parent="1" vertex="1">
          <mxGeometry x="122" y="373" width="60" height="30" as="geometry" />
        </mxCell>
        <mxCell id="4AdipyhfN4XngV5wHGyr-47" value="course_name" style="text;html=1;strokeColor=none;fillColor=none;align=center;verticalAlign=middle;whiteSpace=wrap;rounded=0;fontSize=16;" parent="1" vertex="1">
          <mxGeometry x="136" y="391" width="60" height="30" as="geometry" />
        </mxCell>
        <mxCell id="4AdipyhfN4XngV5wHGyr-49" value="student_id" style="text;html=1;strokeColor=none;fillColor=none;align=center;verticalAlign=middle;whiteSpace=wrap;rounded=0;fontSize=16;" parent="1" vertex="1">
          <mxGeometry x="292" y="604" width="60" height="30" as="geometry" />
        </mxCell>
        <mxCell id="4AdipyhfN4XngV5wHGyr-50" value="student_firstname" style="text;html=1;strokeColor=none;fillColor=none;align=center;verticalAlign=middle;whiteSpace=wrap;rounded=0;fontSize=16;" parent="1" vertex="1">
          <mxGeometry x="319" y="622" width="60" height="30" as="geometry" />
        </mxCell>
        <mxCell id="4AdipyhfN4XngV5wHGyr-51" value="student_lastname" style="text;html=1;strokeColor=none;fillColor=none;align=center;verticalAlign=middle;whiteSpace=wrap;rounded=0;fontSize=16;" parent="1" vertex="1">
          <mxGeometry x="318" y="639" width="60" height="30" as="geometry" />
        </mxCell>
        <mxCell id="4AdipyhfN4XngV5wHGyr-52" value="student_email" style="text;html=1;strokeColor=none;fillColor=none;align=center;verticalAlign=middle;whiteSpace=wrap;rounded=0;fontSize=16;" parent="1" vertex="1">
          <mxGeometry x="306" y="687" width="60" height="30" as="geometry" />
        </mxCell>
        <mxCell id="4AdipyhfN4XngV5wHGyr-53" value="student_dob" style="text;html=1;strokeColor=none;fillColor=none;align=center;verticalAlign=middle;whiteSpace=wrap;rounded=0;fontSize=16;" parent="1" vertex="1">
          <mxGeometry x="299" y="655" width="60" height="30" as="geometry" />
        </mxCell>
        <mxCell id="4AdipyhfN4XngV5wHGyr-54" value="student_address" style="text;html=1;strokeColor=none;fillColor=none;align=center;verticalAlign=middle;whiteSpace=wrap;rounded=0;fontSize=16;" parent="1" vertex="1">
          <mxGeometry x="315" y="671" width="60" height="30" as="geometry" />
        </mxCell>
        <mxCell id="4AdipyhfN4XngV5wHGyr-57" value="teacher_address" style="text;html=1;strokeColor=none;fillColor=none;align=center;verticalAlign=middle;whiteSpace=wrap;rounded=0;fontSize=16;" parent="1" vertex="1">
          <mxGeometry x="467" y="298" width="60" height="30" as="geometry" />
        </mxCell>
        <mxCell id="4AdipyhfN4XngV5wHGyr-58" value="teacher_dob" style="text;html=1;strokeColor=none;fillColor=none;align=center;verticalAlign=middle;whiteSpace=wrap;rounded=0;fontSize=16;" parent="1" vertex="1">
          <mxGeometry x="452" y="319" width="60" height="30" as="geometry" />
        </mxCell>
        <mxCell id="4AdipyhfN4XngV5wHGyr-59" value="" style="edgeStyle=entityRelationEdgeStyle;fontSize=12;html=1;endArrow=ERoneToMany;rounded=0;curved=1;startSize=8;endSize=8;entryX=1.008;entryY=0.383;entryDx=0;entryDy=0;entryPerimeter=0;" parent="1" target="4AdipyhfN4XngV5wHGyr-31" edge="1">
          <mxGeometry width="100" height="100" relative="1" as="geometry">
            <mxPoint x="553" y="540" as="sourcePoint" />
            <mxPoint x="543" y="750" as="targetPoint" />
            <Array as="points">
              <mxPoint x="495.5" y="595" />
              <mxPoint x="195.5" y="565" />
              <mxPoint x="265.5" y="565" />
              <mxPoint x="225.5" y="565" />
              <mxPoint x="335.5" y="635" />
              <mxPoint x="475.5" y="615" />
              <mxPoint x="525.5" y="545" />
            </Array>
          </mxGeometry>
        </mxCell>
        <mxCell id="4AdipyhfN4XngV5wHGyr-60" value="" style="edgeStyle=entityRelationEdgeStyle;fontSize=12;html=1;endArrow=ERoneToMany;rounded=0;curved=1;startSize=8;endSize=8;entryX=0;entryY=0.333;entryDx=0;entryDy=0;exitX=0.42;exitY=1;exitDx=0;exitDy=0;exitPerimeter=0;entryPerimeter=0;" parent="1" source="4AdipyhfN4XngV5wHGyr-30" target="4AdipyhfN4XngV5wHGyr-31" edge="1">
          <mxGeometry width="100" height="100" relative="1" as="geometry">
            <mxPoint x="150" y="600" as="sourcePoint" />
            <mxPoint x="140" y="810" as="targetPoint" />
            <Array as="points">
              <mxPoint x="92.5" y="655" />
              <mxPoint x="-207.5" y="625" />
              <mxPoint x="-137.5" y="625" />
              <mxPoint x="-177.5" y="625" />
              <mxPoint x="-67.5" y="695" />
              <mxPoint x="72.5" y="675" />
              <mxPoint x="122.5" y="605" />
            </Array>
          </mxGeometry>
        </mxCell>
        <mxCell id="oBaSnTIxZjzXQm47bmfi-2" value="student_id" style="text;html=1;strokeColor=none;fillColor=none;align=center;verticalAlign=middle;whiteSpace=wrap;rounded=0;fontSize=16;" vertex="1" parent="1">
          <mxGeometry x="443" y="476" width="60" height="30" as="geometry" />
        </mxCell>
        <mxCell id="oBaSnTIxZjzXQm47bmfi-3" value="department_name" style="text;html=1;strokeColor=none;fillColor=none;align=center;verticalAlign=middle;whiteSpace=wrap;rounded=0;fontSize=16;" vertex="1" parent="1">
          <mxGeometry x="472" y="337" width="60" height="30" as="geometry" />
        </mxCell>
        <mxCell id="oBaSnTIxZjzXQm47bmfi-4" value="department_id" style="text;html=1;strokeColor=none;fillColor=none;align=center;verticalAlign=middle;whiteSpace=wrap;rounded=0;fontSize=16;" vertex="1" parent="1">
          <mxGeometry x="139" y="410" width="60" height="30" as="geometry" />
        </mxCell>
        <mxCell id="oBaSnTIxZjzXQm47bmfi-5" value="teacher_id" style="text;html=1;strokeColor=none;fillColor=none;align=center;verticalAlign=middle;whiteSpace=wrap;rounded=0;fontSize=16;" vertex="1" parent="1">
          <mxGeometry x="125" y="428" width="60" height="30" as="geometry" />
        </mxCell>
        <mxCell id="oBaSnTIxZjzXQm47bmfi-6" value="&lt;span style=&quot;color: rgb(0, 0, 0); font-family: Helvetica; font-size: 16px; font-style: normal; font-variant-ligatures: normal; font-variant-caps: normal; font-weight: 400; letter-spacing: normal; orphans: 2; text-align: center; text-indent: 0px; text-transform: none; widows: 2; word-spacing: 0px; -webkit-text-stroke-width: 0px; background-color: rgb(251, 251, 251); text-decoration-thickness: initial; text-decoration-style: initial; text-decoration-color: initial; float: none; display: inline !important;&quot;&gt;teacher_firstname&lt;/span&gt;" style="text;whiteSpace=wrap;html=1;" vertex="1" parent="1">
          <mxGeometry x="116" y="443" width="110" height="40" as="geometry" />
        </mxCell>
        <mxCell id="oBaSnTIxZjzXQm47bmfi-7" value="&lt;span style=&quot;color: rgb(0, 0, 0); font-family: Helvetica; font-size: 16px; font-style: normal; font-variant-ligatures: normal; font-variant-caps: normal; font-weight: 400; letter-spacing: normal; orphans: 2; text-align: center; text-indent: 0px; text-transform: none; widows: 2; word-spacing: 0px; -webkit-text-stroke-width: 0px; background-color: rgb(251, 251, 251); text-decoration-thickness: initial; text-decoration-style: initial; text-decoration-color: initial; float: none; display: inline !important;&quot;&gt;teacher_lastname&lt;/span&gt;" style="text;whiteSpace=wrap;html=1;" vertex="1" parent="1">
          <mxGeometry x="116" y="460" width="110" height="40" as="geometry" />
        </mxCell>
      </root>
    </mxGraphModel>
  </diagram>
</mxfile>
